<svg width="653" height="273" viewBox="0 0 653 273" fill="none" xmlns="http://www.w3.org/2000/svg">
<path d="M11.468 163.362C7.18288 164.481 2.77529 161.906 1.96759 157.551C-6.85137 110.007 14.3244 59.9491 58.4757 34.1438C104.801 7.06781 161.977 15.1333 199.086 50.2322L208.255 40.5295C210.469 38.1864 214.403 39.291 215.075 42.4442L224.927 88.7379C225.51 91.4763 223.171 93.9508 220.404 93.5238L173.628 86.3041C170.442 85.8124 169.116 81.9467 171.331 79.6036L180.458 69.9449C151.876 42.9113 107.838 36.6992 72.158 57.5534C38.7265 77.0933 22.3984 114.687 28.3103 150.746C29.0228 155.092 26.4998 159.439 22.2384 160.551L11.468 163.362Z" fill="#E2E8F0"/>
<path d="M55.5803 202.093C84.1623 229.127 128.2 235.339 163.88 214.485C197.102 195.067 213.435 157.822 207.836 121.97C207.156 117.613 209.72 113.281 213.997 112.207L224.789 109.496C229.08 108.418 233.46 111.028 234.233 115.384C242.622 162.66 221.436 212.251 177.563 237.894C131.237 264.97 74.0614 256.905 36.9521 221.806L27.7833 231.509C25.5691 233.852 21.6347 232.747 20.9637 229.594L11.1113 183.3C10.5285 180.562 12.8668 178.087 15.6338 178.514L62.4104 185.734C65.5965 186.226 66.9218 190.092 64.7076 192.435L55.5803 202.093Z" fill="#E2E8F0"/>
<path d="M111.234 172.22L170.163 113.19C173.285 110.063 173.28 104.998 170.154 101.877L164.176 95.9081C161.051 92.7882 155.989 92.7902 152.867 95.9126L107.249 141.53C105.687 143.092 103.155 143.092 101.593 141.53L81.7819 121.719C78.6558 118.593 73.5868 118.595 70.4634 121.724L65.566 126.63C62.4445 129.757 62.4488 134.822 65.5757 137.943L99.9202 172.229C103.047 175.351 108.112 175.347 111.234 172.22Z" fill="#E2E8F0"/>
<path d="M318.133 31.75H308.178C307.996 30.4621 307.625 29.3182 307.065 28.3182C306.504 27.303 305.784 26.4394 304.905 25.7273C304.027 25.0151 303.012 24.4697 301.86 24.0909C300.724 23.7121 299.489 23.5227 298.155 23.5227C295.746 23.5227 293.648 24.1212 291.86 25.3182C290.072 26.5 288.686 28.2273 287.701 30.5C286.716 32.7576 286.224 35.5 286.224 38.7273C286.224 42.0455 286.716 44.8333 287.701 47.0909C288.701 49.3485 290.095 51.053 291.883 52.2045C293.671 53.3561 295.739 53.9318 298.087 53.9318C299.405 53.9318 300.625 53.7576 301.746 53.4091C302.883 53.0606 303.89 52.553 304.769 51.8864C305.648 51.2045 306.375 50.3788 306.951 49.4091C307.542 48.4394 307.951 47.3333 308.178 46.0909L318.133 46.1364C317.875 48.2727 317.231 50.3333 316.201 52.3182C315.186 54.2879 313.815 56.053 312.087 57.6136C310.375 59.1591 308.33 60.3864 305.951 61.2955C303.587 62.1894 300.913 62.6364 297.928 62.6364C293.777 62.6364 290.065 61.697 286.792 59.8182C283.534 57.9394 280.958 55.2197 279.065 51.6591C277.186 48.0985 276.246 43.7879 276.246 38.7273C276.246 33.6515 277.201 29.3333 279.11 25.7727C281.019 22.2121 283.61 19.5 286.883 17.6364C290.155 15.7576 293.837 14.8182 297.928 14.8182C300.625 14.8182 303.125 15.197 305.428 15.9545C307.746 16.7121 309.799 17.8182 311.587 19.2727C313.375 20.7121 314.83 22.4773 315.951 24.5682C317.087 26.6591 317.815 29.053 318.133 31.75ZM340.78 62.6818C337.25 62.6818 334.197 61.9318 331.621 60.4318C329.061 58.9167 327.083 56.8106 325.69 54.1136C324.296 51.4015 323.599 48.2576 323.599 44.6818C323.599 41.0758 324.296 37.9242 325.69 35.2273C327.083 32.5152 329.061 30.4091 331.621 28.9091C334.197 27.3939 337.25 26.6364 340.78 26.6364C344.311 26.6364 347.356 27.3939 349.917 28.9091C352.493 30.4091 354.477 32.5152 355.871 35.2273C357.265 37.9242 357.962 41.0758 357.962 44.6818C357.962 48.2576 357.265 51.4015 355.871 54.1136C354.477 56.8106 352.493 58.9167 349.917 60.4318C347.356 61.9318 344.311 62.6818 340.78 62.6818ZM340.826 55.1818C342.432 55.1818 343.773 54.7273 344.849 53.8182C345.924 52.8939 346.735 51.6364 347.28 50.0455C347.841 48.4545 348.121 46.6439 348.121 44.6136C348.121 42.5833 347.841 40.7727 347.28 39.1818C346.735 37.5909 345.924 36.3333 344.849 35.4091C343.773 34.4848 342.432 34.0227 340.826 34.0227C339.205 34.0227 337.841 34.4848 336.735 35.4091C335.644 36.3333 334.818 37.5909 334.258 39.1818C333.712 40.7727 333.44 42.5833 333.44 44.6136C333.44 46.6439 333.712 48.4545 334.258 50.0455C334.818 51.6364 335.644 52.8939 336.735 53.8182C337.841 54.7273 339.205 55.1818 340.826 55.1818ZM373.94 41.8182V62H364.258V27.0909H373.485V33.25H373.894C374.667 31.2197 375.962 29.6136 377.78 28.4318C379.599 27.2348 381.803 26.6364 384.394 26.6364C386.818 26.6364 388.932 27.1667 390.735 28.2273C392.538 29.2879 393.94 30.803 394.94 32.7727C395.94 34.7273 396.44 37.0606 396.44 39.7727V62H386.758V41.5C386.773 39.3636 386.227 37.697 385.121 36.5C384.015 35.2879 382.493 34.6818 380.553 34.6818C379.25 34.6818 378.099 34.9621 377.099 35.5227C376.114 36.0833 375.341 36.9015 374.78 37.9773C374.235 39.0379 373.955 40.3182 373.94 41.8182ZM422.638 27.0909V34.3636H401.616V27.0909H422.638ZM406.388 18.7273H416.07V51.2727C416.07 52.1667 416.207 52.8636 416.479 53.3636C416.752 53.8485 417.131 54.1894 417.616 54.3864C418.116 54.5833 418.691 54.6818 419.343 54.6818C419.798 54.6818 420.252 54.6439 420.707 54.5682C421.161 54.4773 421.51 54.4091 421.752 54.3636L423.275 61.5682C422.79 61.7197 422.108 61.8939 421.229 62.0909C420.351 62.303 419.282 62.4318 418.025 62.4773C415.691 62.5682 413.646 62.2576 411.888 61.5455C410.146 60.8333 408.79 59.7273 407.82 58.2273C406.851 56.7273 406.373 54.8333 406.388 52.5455V18.7273ZM428.945 62V27.0909H438.627V62H428.945ZM433.809 22.5909C432.369 22.5909 431.135 22.1136 430.104 21.1591C429.089 20.1894 428.582 19.0303 428.582 17.6818C428.582 16.3485 429.089 15.2045 430.104 14.25C431.135 13.2803 432.369 12.7955 433.809 12.7955C435.248 12.7955 436.476 13.2803 437.491 14.25C438.521 15.2045 439.036 16.3485 439.036 17.6818C439.036 19.0303 438.521 20.1894 437.491 21.1591C436.476 22.1136 435.248 22.5909 433.809 22.5909ZM456.065 41.8182V62H446.383V27.0909H455.61V33.25H456.019C456.792 31.2197 458.087 29.6136 459.905 28.4318C461.724 27.2348 463.928 26.6364 466.519 26.6364C468.943 26.6364 471.057 27.1667 472.86 28.2273C474.663 29.2879 476.065 30.803 477.065 32.7727C478.065 34.7273 478.565 37.0606 478.565 39.7727V62H468.883V41.5C468.898 39.3636 468.352 37.697 467.246 36.5C466.14 35.2879 464.618 34.6818 462.678 34.6818C461.375 34.6818 460.224 34.9621 459.224 35.5227C458.239 36.0833 457.466 36.9015 456.905 37.9773C456.36 39.0379 456.08 40.3182 456.065 41.8182ZM508.582 47.1364V27.0909H518.263V62H508.968V55.6591H508.604C507.816 57.7045 506.506 59.3485 504.673 60.5909C502.854 61.8333 500.635 62.4545 498.013 62.4545C495.68 62.4545 493.627 61.9242 491.854 60.8636C490.082 59.803 488.695 58.2955 487.695 56.3409C486.71 54.3864 486.21 52.0455 486.195 49.3182V27.0909H495.877V47.5909C495.892 49.6515 496.445 51.2803 497.536 52.4773C498.627 53.6742 500.089 54.2727 501.923 54.2727C503.089 54.2727 504.18 54.0076 505.195 53.4773C506.21 52.9318 507.029 52.1288 507.65 51.0682C508.286 50.0076 508.597 48.697 508.582 47.1364ZM541.78 62.6818C538.25 62.6818 535.197 61.9318 532.621 60.4318C530.061 58.9167 528.083 56.8106 526.69 54.1136C525.296 51.4015 524.599 48.2576 524.599 44.6818C524.599 41.0758 525.296 37.9242 526.69 35.2273C528.083 32.5152 530.061 30.4091 532.621 28.9091C535.197 27.3939 538.25 26.6364 541.78 26.6364C545.311 26.6364 548.356 27.3939 550.917 28.9091C553.493 30.4091 555.477 32.5152 556.871 35.2273C558.265 37.9242 558.962 41.0758 558.962 44.6818C558.962 48.2576 558.265 51.4015 556.871 54.1136C555.477 56.8106 553.493 58.9167 550.917 60.4318C548.356 61.9318 545.311 62.6818 541.78 62.6818ZM541.826 55.1818C543.432 55.1818 544.773 54.7273 545.849 53.8182C546.924 52.8939 547.735 51.6364 548.28 50.0455C548.841 48.4545 549.121 46.6439 549.121 44.6136C549.121 42.5833 548.841 40.7727 548.28 39.1818C547.735 37.5909 546.924 36.3333 545.849 35.4091C544.773 34.4848 543.432 34.0227 541.826 34.0227C540.205 34.0227 538.841 34.4848 537.735 35.4091C536.644 36.3333 535.818 37.5909 535.258 39.1818C534.712 40.7727 534.44 42.5833 534.44 44.6136C534.44 46.6439 534.712 48.4545 535.258 50.0455C535.818 51.6364 536.644 52.8939 537.735 53.8182C538.841 54.7273 540.205 55.1818 541.826 55.1818ZM587.644 47.1364V27.0909H597.326V62H588.03V55.6591H587.667C586.879 57.7045 585.568 59.3485 583.735 60.5909C581.917 61.8333 579.697 62.4545 577.076 62.4545C574.743 62.4545 572.69 61.9242 570.917 60.8636C569.144 59.803 567.758 58.2955 566.758 56.3409C565.773 54.3864 565.273 52.0455 565.258 49.3182V27.0909H574.94V47.5909C574.955 49.6515 575.508 51.2803 576.599 52.4773C577.69 53.6742 579.152 54.2727 580.985 54.2727C582.152 54.2727 583.243 54.0076 584.258 53.4773C585.273 52.9318 586.091 52.1288 586.712 51.0682C587.349 50.0076 587.659 48.697 587.644 47.1364ZM634.116 37.0455L625.252 37.5909C625.101 36.8333 624.775 36.1515 624.275 35.5455C623.775 34.9242 623.116 34.4318 622.298 34.0682C621.494 33.6894 620.532 33.5 619.411 33.5C617.911 33.5 616.646 33.8182 615.616 34.4545C614.585 35.0758 614.07 35.9091 614.07 36.9545C614.07 37.7879 614.404 38.4924 615.07 39.0682C615.737 39.6439 616.881 40.1061 618.502 40.4545L624.82 41.7273C628.214 42.4242 630.744 43.5455 632.411 45.0909C634.078 46.6364 634.911 48.6667 634.911 51.1818C634.911 53.4697 634.237 55.4773 632.888 57.2045C631.555 58.9318 629.722 60.2803 627.388 61.25C625.07 62.2045 622.396 62.6818 619.366 62.6818C614.744 62.6818 611.063 61.7197 608.32 59.7955C605.593 57.8561 603.994 55.2197 603.525 51.8864L613.048 51.3864C613.335 52.7955 614.032 53.8712 615.138 54.6136C616.244 55.3409 617.661 55.7045 619.388 55.7045C621.085 55.7045 622.449 55.3788 623.479 54.7273C624.525 54.0606 625.055 53.2045 625.07 52.1591C625.055 51.2803 624.684 50.5606 623.957 50C623.229 49.4242 622.108 48.9848 620.593 48.6818L614.548 47.4773C611.138 46.7955 608.601 45.6136 606.934 43.9318C605.282 42.25 604.457 40.1061 604.457 37.5C604.457 35.2576 605.063 33.3258 606.275 31.7045C607.502 30.0833 609.222 28.8333 611.434 27.9545C613.661 27.0758 616.267 26.6364 619.252 26.6364C623.661 26.6364 627.131 27.5682 629.661 29.4318C632.207 31.2955 633.691 33.8333 634.116 37.0455ZM318.133 108.75H308.178C307.996 107.462 307.625 106.318 307.065 105.318C306.504 104.303 305.784 103.439 304.905 102.727C304.027 102.015 303.012 101.47 301.86 101.091C300.724 100.712 299.489 100.523 298.155 100.523C295.746 100.523 293.648 101.121 291.86 102.318C290.072 103.5 288.686 105.227 287.701 107.5C286.716 109.758 286.224 112.5 286.224 115.727C286.224 119.045 286.716 121.833 287.701 124.091C288.701 126.348 290.095 128.053 291.883 129.205C293.671 130.356 295.739 130.932 298.087 130.932C299.405 130.932 300.625 130.758 301.746 130.409C302.883 130.061 303.89 129.553 304.769 128.886C305.648 128.205 306.375 127.379 306.951 126.409C307.542 125.439 307.951 124.333 308.178 123.091L318.133 123.136C317.875 125.273 317.231 127.333 316.201 129.318C315.186 131.288 313.815 133.053 312.087 134.614C310.375 136.159 308.33 137.386 305.951 138.295C303.587 139.189 300.913 139.636 297.928 139.636C293.777 139.636 290.065 138.697 286.792 136.818C283.534 134.939 280.958 132.22 279.065 128.659C277.186 125.098 276.246 120.788 276.246 115.727C276.246 110.652 277.201 106.333 279.11 102.773C281.019 99.2121 283.61 96.5 286.883 94.6364C290.155 92.7576 293.837 91.8182 297.928 91.8182C300.625 91.8182 303.125 92.197 305.428 92.9545C307.746 93.7121 309.799 94.8182 311.587 96.2727C313.375 97.7121 314.83 99.4773 315.951 101.568C317.087 103.659 317.815 106.053 318.133 108.75ZM340.78 139.682C337.25 139.682 334.197 138.932 331.621 137.432C329.061 135.917 327.083 133.811 325.69 131.114C324.296 128.402 323.599 125.258 323.599 121.682C323.599 118.076 324.296 114.924 325.69 112.227C327.083 109.515 329.061 107.409 331.621 105.909C334.197 104.394 337.25 103.636 340.78 103.636C344.311 103.636 347.356 104.394 349.917 105.909C352.493 107.409 354.477 109.515 355.871 112.227C357.265 114.924 357.962 118.076 357.962 121.682C357.962 125.258 357.265 128.402 355.871 131.114C354.477 133.811 352.493 135.917 349.917 137.432C347.356 138.932 344.311 139.682 340.78 139.682ZM340.826 132.182C342.432 132.182 343.773 131.727 344.849 130.818C345.924 129.894 346.735 128.636 347.28 127.045C347.841 125.455 348.121 123.644 348.121 121.614C348.121 119.583 347.841 117.773 347.28 116.182C346.735 114.591 345.924 113.333 344.849 112.409C343.773 111.485 342.432 111.023 340.826 111.023C339.205 111.023 337.841 111.485 336.735 112.409C335.644 113.333 334.818 114.591 334.258 116.182C333.712 117.773 333.44 119.583 333.44 121.614C333.44 123.644 333.712 125.455 334.258 127.045C334.818 128.636 335.644 129.894 336.735 130.818C337.841 131.727 339.205 132.182 340.826 132.182ZM364.258 139V104.091H373.485V110.25H373.894C374.621 108.205 375.833 106.591 377.53 105.409C379.227 104.227 381.258 103.636 383.621 103.636C386.015 103.636 388.053 104.235 389.735 105.432C391.417 106.614 392.538 108.22 393.099 110.25H393.462C394.174 108.25 395.462 106.652 397.326 105.455C399.205 104.242 401.424 103.636 403.985 103.636C407.243 103.636 409.887 104.674 411.917 106.75C413.962 108.811 414.985 111.735 414.985 115.523V139H405.326V117.432C405.326 115.492 404.811 114.038 403.78 113.068C402.75 112.098 401.462 111.614 399.917 111.614C398.159 111.614 396.788 112.174 395.803 113.295C394.818 114.402 394.326 115.864 394.326 117.682V139H384.94V117.227C384.94 115.515 384.447 114.152 383.462 113.136C382.493 112.121 381.212 111.614 379.621 111.614C378.546 111.614 377.576 111.886 376.712 112.432C375.864 112.962 375.19 113.712 374.69 114.682C374.19 115.636 373.94 116.758 373.94 118.045V139H364.258ZM422.633 152.091V104.091H432.178V109.955H432.61C433.034 109.015 433.648 108.061 434.451 107.091C435.269 106.106 436.33 105.288 437.633 104.636C438.951 103.97 440.587 103.636 442.542 103.636C445.087 103.636 447.436 104.303 449.587 105.636C451.739 106.955 453.458 108.947 454.746 111.614C456.034 114.265 456.678 117.591 456.678 121.591C456.678 125.485 456.049 128.773 454.792 131.455C453.549 134.121 451.852 136.144 449.701 137.523C447.565 138.886 445.171 139.568 442.519 139.568C440.64 139.568 439.042 139.258 437.724 138.636C436.421 138.015 435.352 137.235 434.519 136.295C433.686 135.341 433.049 134.379 432.61 133.409H432.315V152.091H422.633ZM432.11 121.545C432.11 123.621 432.398 125.432 432.974 126.977C433.549 128.523 434.383 129.727 435.474 130.591C436.565 131.439 437.89 131.864 439.451 131.864C441.027 131.864 442.36 131.432 443.451 130.568C444.542 129.689 445.368 128.477 445.928 126.932C446.504 125.371 446.792 123.576 446.792 121.545C446.792 119.53 446.512 117.758 445.951 116.227C445.39 114.697 444.565 113.5 443.474 112.636C442.383 111.773 441.042 111.341 439.451 111.341C437.875 111.341 436.542 111.758 435.451 112.591C434.375 113.424 433.549 114.606 432.974 116.136C432.398 117.667 432.11 119.47 432.11 121.545ZM472.815 92.4545V139H463.133V92.4545H472.815ZM480.57 139V104.091H490.252V139H480.57ZM485.434 99.5909C483.994 99.5909 482.76 99.1136 481.729 98.1591C480.714 97.1894 480.207 96.0303 480.207 94.6818C480.207 93.3485 480.714 92.2045 481.729 91.25C482.76 90.2803 483.994 89.7955 485.434 89.7955C486.873 89.7955 488.101 90.2803 489.116 91.25C490.146 92.2045 490.661 93.3485 490.661 94.6818C490.661 96.0303 490.146 97.1894 489.116 98.1591C488.101 99.1136 486.873 99.5909 485.434 99.5909ZM507.962 139.659C505.735 139.659 503.75 139.273 502.008 138.5C500.265 137.712 498.887 136.553 497.871 135.023C496.871 133.477 496.371 131.553 496.371 129.25C496.371 127.311 496.727 125.682 497.44 124.364C498.152 123.045 499.121 121.985 500.349 121.182C501.576 120.379 502.97 119.773 504.53 119.364C506.106 118.955 507.758 118.667 509.485 118.5C511.515 118.288 513.152 118.091 514.394 117.909C515.637 117.712 516.538 117.424 517.099 117.045C517.659 116.667 517.94 116.106 517.94 115.364V115.227C517.94 113.788 517.485 112.674 516.576 111.886C515.682 111.098 514.409 110.705 512.758 110.705C511.015 110.705 509.629 111.091 508.599 111.864C507.568 112.621 506.887 113.576 506.553 114.727L497.599 114C498.053 111.879 498.947 110.045 500.28 108.5C501.614 106.939 503.333 105.742 505.44 104.909C507.561 104.061 510.015 103.636 512.803 103.636C514.743 103.636 516.599 103.864 518.371 104.318C520.159 104.773 521.743 105.477 523.121 106.432C524.515 107.386 525.614 108.614 526.417 110.114C527.22 111.598 527.621 113.379 527.621 115.455V139H518.44V134.159H518.167C517.606 135.25 516.856 136.212 515.917 137.045C514.977 137.864 513.849 138.508 512.53 138.977C511.212 139.432 509.69 139.659 507.962 139.659ZM510.735 132.977C512.159 132.977 513.417 132.697 514.508 132.136C515.599 131.561 516.455 130.788 517.076 129.818C517.697 128.848 518.008 127.75 518.008 126.523V122.818C517.705 123.015 517.288 123.197 516.758 123.364C516.243 123.515 515.659 123.659 515.008 123.795C514.356 123.917 513.705 124.03 513.053 124.136C512.402 124.227 511.811 124.311 511.28 124.386C510.144 124.553 509.152 124.818 508.303 125.182C507.455 125.545 506.796 126.038 506.326 126.659C505.856 127.265 505.621 128.023 505.621 128.932C505.621 130.25 506.099 131.258 507.053 131.955C508.023 132.636 509.25 132.977 510.735 132.977ZM544.815 118.818V139H535.133V104.091H544.36V110.25H544.769C545.542 108.22 546.837 106.614 548.655 105.432C550.474 104.235 552.678 103.636 555.269 103.636C557.693 103.636 559.807 104.167 561.61 105.227C563.413 106.288 564.815 107.803 565.815 109.773C566.815 111.727 567.315 114.061 567.315 116.773V139H557.633V118.5C557.648 116.364 557.102 114.697 555.996 113.5C554.89 112.288 553.368 111.682 551.428 111.682C550.125 111.682 548.974 111.962 547.974 112.523C546.989 113.083 546.216 113.902 545.655 114.977C545.11 116.038 544.83 117.318 544.815 118.818ZM590.718 139.682C587.142 139.682 584.066 138.924 581.491 137.409C578.93 135.879 576.96 133.758 575.582 131.045C574.218 128.333 573.536 125.212 573.536 121.682C573.536 118.106 574.226 114.97 575.604 112.273C576.998 109.561 578.976 107.447 581.536 105.932C584.097 104.402 587.142 103.636 590.673 103.636C593.718 103.636 596.385 104.189 598.673 105.295C600.96 106.402 602.771 107.955 604.104 109.955C605.438 111.955 606.173 114.303 606.309 117H597.173C596.915 115.258 596.233 113.856 595.127 112.795C594.036 111.72 592.604 111.182 590.832 111.182C589.332 111.182 588.021 111.591 586.9 112.409C585.794 113.212 584.93 114.386 584.309 115.932C583.688 117.477 583.377 119.348 583.377 121.545C583.377 123.773 583.68 125.667 584.286 127.227C584.907 128.788 585.779 129.977 586.9 130.795C588.021 131.614 589.332 132.023 590.832 132.023C591.938 132.023 592.93 131.795 593.809 131.341C594.703 130.886 595.438 130.227 596.013 129.364C596.604 128.485 596.991 127.432 597.173 126.205H606.309C606.157 128.871 605.43 131.22 604.127 133.25C602.839 135.265 601.059 136.841 598.786 137.977C596.513 139.114 593.824 139.682 590.718 139.682ZM628.417 139.682C624.826 139.682 621.735 138.955 619.144 137.5C616.568 136.03 614.583 133.955 613.19 131.273C611.796 128.576 611.099 125.386 611.099 121.705C611.099 118.114 611.796 114.962 613.19 112.25C614.583 109.538 616.546 107.424 619.076 105.909C621.621 104.394 624.606 103.636 628.03 103.636C630.333 103.636 632.477 104.008 634.462 104.75C636.462 105.477 638.205 106.576 639.69 108.045C641.19 109.515 642.356 111.364 643.19 113.591C644.023 115.803 644.44 118.394 644.44 121.364V124.023H614.962V118.023H635.326C635.326 116.629 635.023 115.394 634.417 114.318C633.811 113.242 632.97 112.402 631.894 111.795C630.833 111.174 629.599 110.864 628.19 110.864C626.72 110.864 625.417 111.205 624.28 111.886C623.159 112.553 622.28 113.455 621.644 114.591C621.008 115.712 620.682 116.962 620.667 118.341V124.045C620.667 125.773 620.985 127.265 621.621 128.523C622.273 129.78 623.19 130.75 624.371 131.432C625.553 132.114 626.955 132.455 628.576 132.455C629.652 132.455 630.637 132.303 631.53 132C632.424 131.697 633.19 131.242 633.826 130.636C634.462 130.03 634.947 129.288 635.28 128.409L644.235 129C643.78 131.152 642.849 133.03 641.44 134.636C640.046 136.227 638.243 137.47 636.03 138.364C633.833 139.242 631.296 139.682 628.417 139.682ZM277.065 216V169.455H307.883V177.568H286.905V188.659H305.837V196.773H286.905V216H277.065ZM313.758 216V181.091H323.144V187.182H323.508C324.144 185.015 325.212 183.379 326.712 182.273C328.212 181.152 329.94 180.591 331.894 180.591C332.379 180.591 332.902 180.621 333.462 180.682C334.023 180.742 334.515 180.826 334.94 180.932V189.523C334.485 189.386 333.856 189.265 333.053 189.159C332.25 189.053 331.515 189 330.849 189C329.424 189 328.152 189.311 327.03 189.932C325.924 190.538 325.046 191.386 324.394 192.477C323.758 193.568 323.44 194.826 323.44 196.25V216H313.758ZM348.9 216.659C346.673 216.659 344.688 216.273 342.945 215.5C341.203 214.712 339.824 213.553 338.809 212.023C337.809 210.477 337.309 208.553 337.309 206.25C337.309 204.311 337.665 202.682 338.377 201.364C339.089 200.045 340.059 198.985 341.286 198.182C342.513 197.379 343.907 196.773 345.468 196.364C347.044 195.955 348.695 195.667 350.423 195.5C352.453 195.288 354.089 195.091 355.332 194.909C356.574 194.712 357.476 194.424 358.036 194.045C358.597 193.667 358.877 193.106 358.877 192.364V192.227C358.877 190.788 358.423 189.674 357.513 188.886C356.619 188.098 355.347 187.705 353.695 187.705C351.953 187.705 350.566 188.091 349.536 188.864C348.506 189.621 347.824 190.576 347.491 191.727L338.536 191C338.991 188.879 339.885 187.045 341.218 185.5C342.551 183.939 344.271 182.742 346.377 181.909C348.498 181.061 350.953 180.636 353.741 180.636C355.68 180.636 357.536 180.864 359.309 181.318C361.097 181.773 362.68 182.477 364.059 183.432C365.453 184.386 366.551 185.614 367.354 187.114C368.157 188.598 368.559 190.379 368.559 192.455V216H359.377V211.159H359.104C358.544 212.25 357.794 213.212 356.854 214.045C355.915 214.864 354.786 215.508 353.468 215.977C352.15 216.432 350.627 216.659 348.9 216.659ZM351.673 209.977C353.097 209.977 354.354 209.697 355.445 209.136C356.536 208.561 357.392 207.788 358.013 206.818C358.635 205.848 358.945 204.75 358.945 203.523V199.818C358.642 200.015 358.226 200.197 357.695 200.364C357.18 200.515 356.597 200.659 355.945 200.795C355.294 200.917 354.642 201.03 353.991 201.136C353.339 201.227 352.748 201.311 352.218 201.386C351.082 201.553 350.089 201.818 349.241 202.182C348.392 202.545 347.733 203.038 347.263 203.659C346.794 204.265 346.559 205.023 346.559 205.932C346.559 207.25 347.036 208.258 347.991 208.955C348.96 209.636 350.188 209.977 351.673 209.977ZM376.07 216V181.091H385.298V187.25H385.707C386.434 185.205 387.646 183.591 389.343 182.409C391.04 181.227 393.07 180.636 395.434 180.636C397.828 180.636 399.866 181.235 401.548 182.432C403.229 183.614 404.351 185.22 404.911 187.25H405.275C405.987 185.25 407.275 183.652 409.138 182.455C411.017 181.242 413.237 180.636 415.798 180.636C419.055 180.636 421.699 181.674 423.729 183.75C425.775 185.811 426.798 188.735 426.798 192.523V216H417.138V194.432C417.138 192.492 416.623 191.038 415.593 190.068C414.563 189.098 413.275 188.614 411.729 188.614C409.972 188.614 408.601 189.174 407.616 190.295C406.631 191.402 406.138 192.864 406.138 194.682V216H396.752V194.227C396.752 192.515 396.26 191.152 395.275 190.136C394.305 189.121 393.025 188.614 391.434 188.614C390.358 188.614 389.388 188.886 388.525 189.432C387.676 189.962 387.002 190.712 386.502 191.682C386.002 192.636 385.752 193.758 385.752 195.045V216H376.07ZM450.354 216.682C446.763 216.682 443.673 215.955 441.082 214.5C438.506 213.03 436.521 210.955 435.127 208.273C433.733 205.576 433.036 202.386 433.036 198.705C433.036 195.114 433.733 191.962 435.127 189.25C436.521 186.538 438.483 184.424 441.013 182.909C443.559 181.394 446.544 180.636 449.968 180.636C452.271 180.636 454.415 181.008 456.4 181.75C458.4 182.477 460.142 183.576 461.627 185.045C463.127 186.515 464.294 188.364 465.127 190.591C465.96 192.803 466.377 195.394 466.377 198.364V201.023H436.9V195.023H457.263C457.263 193.629 456.96 192.394 456.354 191.318C455.748 190.242 454.907 189.402 453.832 188.795C452.771 188.174 451.536 187.864 450.127 187.864C448.657 187.864 447.354 188.205 446.218 188.886C445.097 189.553 444.218 190.455 443.582 191.591C442.945 192.712 442.619 193.962 442.604 195.341V201.045C442.604 202.773 442.923 204.265 443.559 205.523C444.21 206.78 445.127 207.75 446.309 208.432C447.491 209.114 448.892 209.455 450.513 209.455C451.589 209.455 452.574 209.303 453.468 209C454.362 208.697 455.127 208.242 455.763 207.636C456.4 207.03 456.885 206.288 457.218 205.409L466.173 206C465.718 208.152 464.786 210.03 463.377 211.636C461.983 213.227 460.18 214.47 457.968 215.364C455.771 216.242 453.233 216.682 450.354 216.682ZM479.332 216L469.832 181.091H479.627L485.036 204.545H485.354L490.991 181.091H500.604L506.332 204.409H506.627L511.945 181.091H521.718L512.241 216H501.991L495.991 194.045H495.559L489.559 216H479.332ZM541.78 216.682C538.25 216.682 535.197 215.932 532.621 214.432C530.061 212.917 528.083 210.811 526.69 208.114C525.296 205.402 524.599 202.258 524.599 198.682C524.599 195.076 525.296 191.924 526.69 189.227C528.083 186.515 530.061 184.409 532.621 182.909C535.197 181.394 538.25 180.636 541.78 180.636C545.311 180.636 548.356 181.394 550.917 182.909C553.493 184.409 555.477 186.515 556.871 189.227C558.265 191.924 558.962 195.076 558.962 198.682C558.962 202.258 558.265 205.402 556.871 208.114C555.477 210.811 553.493 212.917 550.917 214.432C548.356 215.932 545.311 216.682 541.78 216.682ZM541.826 209.182C543.432 209.182 544.773 208.727 545.849 207.818C546.924 206.894 547.735 205.636 548.28 204.045C548.841 202.455 549.121 200.644 549.121 198.614C549.121 196.583 548.841 194.773 548.28 193.182C547.735 191.591 546.924 190.333 545.849 189.409C544.773 188.485 543.432 188.023 541.826 188.023C540.205 188.023 538.841 188.485 537.735 189.409C536.644 190.333 535.818 191.591 535.258 193.182C534.712 194.773 534.44 196.583 534.44 198.614C534.44 200.644 534.712 202.455 535.258 204.045C535.818 205.636 536.644 206.894 537.735 207.818C538.841 208.727 540.205 209.182 541.826 209.182ZM565.258 216V181.091H574.644V187.182H575.008C575.644 185.015 576.712 183.379 578.212 182.273C579.712 181.152 581.44 180.591 583.394 180.591C583.879 180.591 584.402 180.621 584.962 180.682C585.523 180.742 586.015 180.826 586.44 180.932V189.523C585.985 189.386 585.356 189.265 584.553 189.159C583.75 189.053 583.015 189 582.349 189C580.924 189 579.652 189.311 578.53 189.932C577.424 190.538 576.546 191.386 575.894 192.477C575.258 193.568 574.94 194.826 574.94 196.25V216H565.258ZM600.218 205.955L600.241 194.341H601.65L612.832 181.091H623.945L608.923 198.636H606.627L600.218 205.955ZM591.445 216V169.455H601.127V216H591.445ZM613.263 216L602.991 200.795L609.445 193.955L624.604 216H613.263Z" fill="#E2E8F0"/>
<path d="M289.364 265.344L277.682 253.663C276.75 252.731 276.129 251.648 275.818 250.413C275.515 249.178 275.519 247.951 275.83 246.731C276.14 245.504 276.758 244.435 277.682 243.526C278.629 242.594 279.708 241.977 280.92 241.674C282.14 241.363 283.356 241.363 284.568 241.674C285.788 241.985 286.871 242.602 287.818 243.526L289.364 245.026L290.909 243.526C291.864 242.602 292.947 241.985 294.159 241.674C295.371 241.363 296.583 241.363 297.795 241.674C299.015 241.977 300.098 242.594 301.045 243.526C301.97 244.435 302.587 245.504 302.898 246.731C303.208 247.951 303.208 249.178 302.898 250.413C302.595 251.648 301.977 252.731 301.045 253.663L289.364 265.344ZM335.682 249.856H330.705C330.614 249.212 330.428 248.64 330.148 248.14C329.867 247.632 329.508 247.201 329.068 246.844C328.629 246.488 328.121 246.216 327.545 246.026C326.977 245.837 326.36 245.742 325.693 245.742C324.489 245.742 323.439 246.041 322.545 246.64C321.652 247.231 320.958 248.094 320.466 249.231C319.973 250.36 319.727 251.731 319.727 253.344C319.727 255.004 319.973 256.398 320.466 257.526C320.966 258.655 321.663 259.507 322.557 260.083C323.451 260.659 324.485 260.947 325.659 260.947C326.318 260.947 326.928 260.86 327.489 260.685C328.057 260.511 328.561 260.257 329 259.924C329.439 259.583 329.803 259.17 330.091 258.685C330.386 258.201 330.591 257.648 330.705 257.026L335.682 257.049C335.553 258.117 335.231 259.148 334.716 260.14C334.208 261.125 333.523 262.007 332.659 262.788C331.803 263.56 330.78 264.174 329.591 264.629C328.409 265.076 327.072 265.299 325.58 265.299C323.504 265.299 321.648 264.829 320.011 263.89C318.383 262.951 317.095 261.591 316.148 259.81C315.208 258.03 314.739 255.875 314.739 253.344C314.739 250.807 315.216 248.648 316.17 246.867C317.125 245.087 318.42 243.731 320.057 242.799C321.693 241.86 323.534 241.39 325.58 241.39C326.928 241.39 328.178 241.579 329.33 241.958C330.489 242.337 331.515 242.89 332.409 243.617C333.303 244.337 334.03 245.219 334.591 246.265C335.159 247.31 335.523 248.507 335.682 249.856ZM347.006 265.322C345.241 265.322 343.714 264.947 342.426 264.197C341.146 263.439 340.157 262.386 339.46 261.038C338.763 259.682 338.415 258.11 338.415 256.322C338.415 254.519 338.763 252.943 339.46 251.594C340.157 250.238 341.146 249.185 342.426 248.435C343.714 247.678 345.241 247.299 347.006 247.299C348.771 247.299 350.294 247.678 351.574 248.435C352.862 249.185 353.854 250.238 354.551 251.594C355.248 252.943 355.597 254.519 355.597 256.322C355.597 258.11 355.248 259.682 354.551 261.038C353.854 262.386 352.862 263.439 351.574 264.197C350.294 264.947 348.771 265.322 347.006 265.322ZM347.028 261.572C347.831 261.572 348.502 261.344 349.04 260.89C349.578 260.428 349.983 259.799 350.256 259.004C350.536 258.208 350.676 257.303 350.676 256.288C350.676 255.273 350.536 254.367 350.256 253.572C349.983 252.776 349.578 252.148 349.04 251.685C348.502 251.223 347.831 250.992 347.028 250.992C346.218 250.992 345.536 251.223 344.983 251.685C344.438 252.148 344.025 252.776 343.744 253.572C343.472 254.367 343.335 255.273 343.335 256.288C343.335 257.303 343.472 258.208 343.744 259.004C344.025 259.799 344.438 260.428 344.983 260.89C345.536 261.344 346.218 261.572 347.028 261.572ZM363.585 254.89V264.981H358.744V247.526H363.358V250.606H363.562C363.949 249.591 364.597 248.788 365.506 248.197C366.415 247.598 367.517 247.299 368.812 247.299C370.025 247.299 371.081 247.564 371.983 248.094C372.884 248.625 373.585 249.382 374.085 250.367C374.585 251.344 374.835 252.511 374.835 253.867V264.981H369.994V254.731C370.002 253.663 369.729 252.829 369.176 252.231C368.623 251.625 367.862 251.322 366.892 251.322C366.241 251.322 365.665 251.462 365.165 251.742C364.672 252.023 364.286 252.432 364.006 252.969C363.733 253.5 363.593 254.14 363.585 254.89ZM387.935 247.526V251.163H377.423V247.526H387.935ZM379.81 243.344H384.651V259.617C384.651 260.064 384.719 260.413 384.855 260.663C384.991 260.905 385.181 261.076 385.423 261.174C385.673 261.273 385.961 261.322 386.287 261.322C386.514 261.322 386.741 261.303 386.969 261.265C387.196 261.219 387.37 261.185 387.491 261.163L388.253 264.765C388.01 264.841 387.67 264.928 387.23 265.026C386.791 265.132 386.257 265.197 385.628 265.219C384.461 265.265 383.438 265.11 382.56 264.754C381.688 264.398 381.01 263.844 380.526 263.094C380.041 262.344 379.802 261.398 379.81 260.254V243.344ZM396.065 265.31C394.952 265.31 393.959 265.117 393.088 264.731C392.217 264.337 391.527 263.757 391.02 262.992C390.52 262.219 390.27 261.257 390.27 260.106C390.27 259.136 390.448 258.322 390.804 257.663C391.16 257.004 391.645 256.473 392.259 256.072C392.872 255.67 393.569 255.367 394.349 255.163C395.137 254.958 395.963 254.814 396.827 254.731C397.842 254.625 398.66 254.526 399.281 254.435C399.902 254.337 400.353 254.193 400.634 254.004C400.914 253.814 401.054 253.534 401.054 253.163V253.094C401.054 252.375 400.827 251.818 400.372 251.424C399.925 251.03 399.289 250.833 398.463 250.833C397.592 250.833 396.899 251.026 396.384 251.413C395.868 251.791 395.527 252.269 395.361 252.844L390.884 252.481C391.111 251.42 391.558 250.504 392.224 249.731C392.891 248.951 393.751 248.352 394.804 247.935C395.865 247.511 397.092 247.299 398.486 247.299C399.455 247.299 400.384 247.413 401.27 247.64C402.164 247.867 402.955 248.219 403.645 248.697C404.342 249.174 404.891 249.788 405.293 250.538C405.694 251.28 405.895 252.17 405.895 253.208V264.981H401.304V262.56H401.168C400.887 263.106 400.512 263.587 400.043 264.004C399.573 264.413 399.009 264.735 398.349 264.969C397.69 265.197 396.929 265.31 396.065 265.31ZM397.452 261.969C398.164 261.969 398.793 261.829 399.338 261.549C399.884 261.261 400.312 260.875 400.622 260.39C400.933 259.905 401.088 259.356 401.088 258.742V256.89C400.937 256.988 400.728 257.079 400.463 257.163C400.205 257.238 399.914 257.31 399.588 257.379C399.262 257.439 398.937 257.496 398.611 257.549C398.285 257.594 397.99 257.636 397.724 257.674C397.156 257.757 396.66 257.89 396.236 258.072C395.812 258.254 395.482 258.5 395.247 258.81C395.012 259.113 394.895 259.492 394.895 259.947C394.895 260.606 395.134 261.11 395.611 261.458C396.096 261.799 396.709 261.969 397.452 261.969ZM409.651 264.981V247.526H414.491V264.981H409.651ZM412.082 245.276C411.363 245.276 410.745 245.038 410.23 244.56C409.723 244.076 409.469 243.496 409.469 242.822C409.469 242.155 409.723 241.583 410.23 241.106C410.745 240.621 411.363 240.379 412.082 240.379C412.802 240.379 413.416 240.621 413.923 241.106C414.438 241.583 414.696 242.155 414.696 242.822C414.696 243.496 414.438 244.076 413.923 244.56C413.416 245.038 412.802 245.276 412.082 245.276ZM423.21 254.89V264.981H418.369V247.526H422.983V250.606H423.188C423.574 249.591 424.222 248.788 425.131 248.197C426.04 247.598 427.142 247.299 428.438 247.299C429.65 247.299 430.706 247.564 431.608 248.094C432.509 248.625 433.21 249.382 433.71 250.367C434.21 251.344 434.46 252.511 434.46 253.867V264.981H429.619V254.731C429.627 253.663 429.354 252.829 428.801 252.231C428.248 251.625 427.487 251.322 426.517 251.322C425.866 251.322 425.29 251.462 424.79 251.742C424.297 252.023 423.911 252.432 423.631 252.969C423.358 253.5 423.218 254.14 423.21 254.89ZM446.23 265.322C444.435 265.322 442.889 264.958 441.594 264.231C440.306 263.496 439.313 262.458 438.616 261.117C437.92 259.769 437.571 258.174 437.571 256.333C437.571 254.538 437.92 252.962 438.616 251.606C439.313 250.25 440.295 249.193 441.56 248.435C442.832 247.678 444.325 247.299 446.037 247.299C447.188 247.299 448.26 247.485 449.253 247.856C450.253 248.219 451.124 248.769 451.866 249.504C452.616 250.238 453.2 251.163 453.616 252.276C454.033 253.382 454.241 254.678 454.241 256.163V257.492H439.503V254.492H449.685C449.685 253.795 449.533 253.178 449.23 252.64C448.927 252.102 448.507 251.682 447.969 251.379C447.438 251.068 446.821 250.913 446.116 250.913C445.382 250.913 444.73 251.083 444.162 251.424C443.601 251.757 443.162 252.208 442.844 252.776C442.526 253.337 442.363 253.962 442.355 254.651V257.504C442.355 258.367 442.514 259.113 442.832 259.742C443.158 260.371 443.616 260.856 444.207 261.197C444.798 261.538 445.499 261.708 446.31 261.708C446.848 261.708 447.34 261.632 447.787 261.481C448.234 261.329 448.616 261.102 448.935 260.799C449.253 260.496 449.495 260.125 449.662 259.685L454.139 259.981C453.912 261.057 453.446 261.996 452.741 262.799C452.045 263.594 451.143 264.216 450.037 264.663C448.938 265.102 447.67 265.322 446.23 265.322ZM457.401 264.981V247.526H462.094V250.572H462.276C462.594 249.488 463.128 248.67 463.878 248.117C464.628 247.557 465.491 247.276 466.469 247.276C466.711 247.276 466.973 247.291 467.253 247.322C467.533 247.352 467.779 247.394 467.991 247.447V251.742C467.764 251.674 467.45 251.613 467.048 251.56C466.647 251.507 466.279 251.481 465.946 251.481C465.234 251.481 464.598 251.636 464.037 251.947C463.484 252.25 463.045 252.674 462.719 253.219C462.401 253.765 462.241 254.394 462.241 255.106V264.981H457.401ZM490.616 248.401C490.526 247.485 490.135 246.773 489.446 246.265C488.757 245.757 487.821 245.504 486.639 245.504C485.836 245.504 485.158 245.617 484.605 245.844C484.052 246.064 483.628 246.371 483.332 246.765C483.045 247.159 482.901 247.606 482.901 248.106C482.885 248.523 482.973 248.886 483.162 249.197C483.359 249.507 483.628 249.776 483.969 250.004C484.31 250.223 484.704 250.416 485.151 250.583C485.598 250.742 486.075 250.879 486.582 250.992L488.673 251.492C489.688 251.719 490.62 252.023 491.469 252.401C492.317 252.78 493.052 253.246 493.673 253.799C494.295 254.352 494.776 255.004 495.116 255.754C495.465 256.504 495.643 257.363 495.651 258.333C495.643 259.757 495.279 260.992 494.56 262.038C493.848 263.076 492.817 263.882 491.469 264.458C490.128 265.026 488.51 265.31 486.616 265.31C484.738 265.31 483.101 265.023 481.707 264.447C480.321 263.871 479.238 263.019 478.457 261.89C477.685 260.754 477.279 259.348 477.241 257.674H482.003C482.056 258.454 482.279 259.106 482.673 259.629C483.075 260.144 483.609 260.534 484.276 260.799C484.95 261.057 485.711 261.185 486.56 261.185C487.393 261.185 488.116 261.064 488.73 260.822C489.351 260.579 489.832 260.242 490.173 259.81C490.514 259.379 490.685 258.882 490.685 258.322C490.685 257.799 490.529 257.36 490.219 257.004C489.916 256.648 489.469 256.344 488.878 256.094C488.295 255.844 487.579 255.617 486.73 255.413L484.196 254.776C482.234 254.299 480.685 253.553 479.548 252.538C478.412 251.523 477.848 250.155 477.855 248.435C477.848 247.026 478.223 245.795 478.98 244.742C479.745 243.689 480.795 242.867 482.128 242.276C483.461 241.685 484.976 241.39 486.673 241.39C488.401 241.39 489.908 241.685 491.196 242.276C492.491 242.867 493.499 243.689 494.219 244.742C494.938 245.795 495.31 247.015 495.332 248.401H490.616ZM506.756 265.322C504.991 265.322 503.464 264.947 502.176 264.197C500.896 263.439 499.907 262.386 499.21 261.038C498.513 259.682 498.165 258.11 498.165 256.322C498.165 254.519 498.513 252.943 499.21 251.594C499.907 250.238 500.896 249.185 502.176 248.435C503.464 247.678 504.991 247.299 506.756 247.299C508.521 247.299 510.044 247.678 511.324 248.435C512.612 249.185 513.604 250.238 514.301 251.594C514.998 252.943 515.347 254.519 515.347 256.322C515.347 258.11 514.998 259.682 514.301 261.038C513.604 262.386 512.612 263.439 511.324 264.197C510.044 264.947 508.521 265.322 506.756 265.322ZM506.778 261.572C507.581 261.572 508.252 261.344 508.79 260.89C509.328 260.428 509.733 259.799 510.006 259.004C510.286 258.208 510.426 257.303 510.426 256.288C510.426 255.273 510.286 254.367 510.006 253.572C509.733 252.776 509.328 252.148 508.79 251.685C508.252 251.223 507.581 250.992 506.778 250.992C505.968 250.992 505.286 251.223 504.733 251.685C504.188 252.148 503.775 252.776 503.494 253.572C503.222 254.367 503.085 255.273 503.085 256.288C503.085 257.303 503.222 258.208 503.494 259.004C503.775 259.799 504.188 260.428 504.733 260.89C505.286 261.344 505.968 261.572 506.778 261.572ZM523.335 241.708V264.981H518.494V241.708H523.335ZM538.406 257.549V247.526H543.247V264.981H538.599V261.81H538.418C538.024 262.833 537.368 263.655 536.452 264.276C535.543 264.898 534.433 265.208 533.122 265.208C531.955 265.208 530.929 264.943 530.043 264.413C529.156 263.882 528.463 263.129 527.963 262.151C527.471 261.174 527.221 260.004 527.213 258.64V247.526H532.054V257.776C532.062 258.807 532.338 259.621 532.884 260.219C533.429 260.818 534.16 261.117 535.077 261.117C535.66 261.117 536.205 260.985 536.713 260.719C537.221 260.447 537.63 260.045 537.94 259.515C538.259 258.985 538.414 258.329 538.406 257.549ZM556.403 247.526V251.163H545.892V247.526H556.403ZM548.278 243.344H553.119V259.617C553.119 260.064 553.188 260.413 553.324 260.663C553.46 260.905 553.65 261.076 553.892 261.174C554.142 261.273 554.43 261.322 554.756 261.322C554.983 261.322 555.21 261.303 555.438 261.265C555.665 261.219 555.839 261.185 555.96 261.163L556.722 264.765C556.479 264.841 556.138 264.928 555.699 265.026C555.259 265.132 554.725 265.197 554.097 265.219C552.93 265.265 551.907 265.11 551.028 264.754C550.157 264.398 549.479 263.844 548.994 263.094C548.509 262.344 548.271 261.398 548.278 260.254V243.344ZM559.557 264.981V247.526H564.398V264.981H559.557ZM561.989 245.276C561.269 245.276 560.652 245.038 560.136 244.56C559.629 244.076 559.375 243.496 559.375 242.822C559.375 242.155 559.629 241.583 560.136 241.106C560.652 240.621 561.269 240.379 561.989 240.379C562.708 240.379 563.322 240.621 563.83 241.106C564.345 241.583 564.602 242.155 564.602 242.822C564.602 243.496 564.345 244.076 563.83 244.56C563.322 245.038 562.708 245.276 561.989 245.276ZM576.162 265.322C574.397 265.322 572.87 264.947 571.582 264.197C570.302 263.439 569.313 262.386 568.616 261.038C567.92 259.682 567.571 258.11 567.571 256.322C567.571 254.519 567.92 252.943 568.616 251.594C569.313 250.238 570.302 249.185 571.582 248.435C572.87 247.678 574.397 247.299 576.162 247.299C577.927 247.299 579.45 247.678 580.73 248.435C582.018 249.185 583.01 250.238 583.707 251.594C584.404 252.943 584.753 254.519 584.753 256.322C584.753 258.11 584.404 259.682 583.707 261.038C583.01 262.386 582.018 263.439 580.73 264.197C579.45 264.947 577.927 265.322 576.162 265.322ZM576.185 261.572C576.988 261.572 577.658 261.344 578.196 260.89C578.734 260.428 579.139 259.799 579.412 259.004C579.692 258.208 579.832 257.303 579.832 256.288C579.832 255.273 579.692 254.367 579.412 253.572C579.139 252.776 578.734 252.148 578.196 251.685C577.658 251.223 576.988 250.992 576.185 250.992C575.374 250.992 574.692 251.223 574.139 251.685C573.594 252.148 573.181 252.776 572.901 253.572C572.628 254.367 572.491 255.273 572.491 256.288C572.491 257.303 572.628 258.208 572.901 259.004C573.181 259.799 573.594 260.428 574.139 260.89C574.692 261.344 575.374 261.572 576.185 261.572ZM592.741 254.89V264.981H587.901V247.526H592.514V250.606H592.719C593.105 249.591 593.753 248.788 594.662 248.197C595.571 247.598 596.673 247.299 597.969 247.299C599.181 247.299 600.238 247.564 601.139 248.094C602.041 248.625 602.741 249.382 603.241 250.367C603.741 251.344 603.991 252.511 603.991 253.867V264.981H599.151V254.731C599.158 253.663 598.885 252.829 598.332 252.231C597.779 251.625 597.018 251.322 596.048 251.322C595.397 251.322 594.821 251.462 594.321 251.742C593.829 252.023 593.442 252.432 593.162 252.969C592.889 253.5 592.749 254.14 592.741 254.89ZM622.33 252.504L617.898 252.776C617.822 252.398 617.659 252.057 617.409 251.754C617.159 251.443 616.83 251.197 616.42 251.015C616.019 250.826 615.538 250.731 614.977 250.731C614.227 250.731 613.595 250.89 613.08 251.208C612.564 251.519 612.307 251.935 612.307 252.458C612.307 252.875 612.473 253.227 612.807 253.515C613.14 253.803 613.712 254.034 614.523 254.208L617.682 254.844C619.379 255.193 620.644 255.754 621.477 256.526C622.311 257.299 622.727 258.314 622.727 259.572C622.727 260.716 622.39 261.719 621.716 262.583C621.049 263.447 620.133 264.121 618.966 264.606C617.807 265.083 616.47 265.322 614.955 265.322C612.644 265.322 610.803 264.841 609.432 263.879C608.068 262.909 607.269 261.591 607.034 259.924L611.795 259.674C611.939 260.379 612.288 260.916 612.841 261.288C613.394 261.651 614.102 261.833 614.966 261.833C615.814 261.833 616.496 261.67 617.011 261.344C617.534 261.011 617.799 260.583 617.807 260.06C617.799 259.621 617.614 259.261 617.25 258.981C616.886 258.693 616.326 258.473 615.568 258.322L612.545 257.719C610.841 257.379 609.572 256.788 608.739 255.947C607.913 255.106 607.5 254.034 607.5 252.731C607.5 251.61 607.803 250.644 608.409 249.833C609.023 249.023 609.883 248.398 610.989 247.958C612.102 247.519 613.405 247.299 614.898 247.299C617.102 247.299 618.837 247.765 620.102 248.697C621.375 249.629 622.117 250.898 622.33 252.504Z" fill="#E2E8F0"/>
</svg>
